<?xml version="1.0" encoding="utf-8"?>
<!-- Generator: Adobe Illustrator 24.0.2, SVG Export Plug-In . SVG Version: 6.00 Build 0)  -->
<svg version="1.1" id="Layer_1" xmlns="http://www.w3.org/2000/svg" xmlns:xlink="http://www.w3.org/1999/xlink" x="0px" y="0px"
	 viewBox="0 0 1920 1080" style="enable-background:new 0 0 1920 1080;" xml:space="preserve">
<style type="text/css">
	.st0{fill:#457B9D;}
	.st1{fill:#006837;}
	.st2{fill:none;}
</style>
<g>
	<path class="st0" d="M1919.41,696.76c-613,0-1225.99,0-1838.99,0c-8.13-0.67-16.31-0.12-24.46-0.3c-9.05,0-18.09,0-27.13,0
		c-9.48-0.17-18.98,0.35-28.45-0.28c-0.6-0.97-0.32-1.97-0.32-2.96c-0.01-43.48-0.02-86.96-0.01-130.44
		c0.13-1.85,2.11-1.75,4.15-1.26c1.35,0.32,2.23,1.17,3.78,1.34c2.76,0.46,4.13,2.05,6.55,2.79c3.23,0.43,5.25,2.15,8.35,2.72
		c2.84,0.41,4.49,1.91,6.99,2.63c3.66,0.61,6.38,2.38,10.14,2.88c6.28,1.86,12.53,3.74,19.07,5.28
		c27.27,7.34,55.67,12.52,85.12,15.79c22.92,2.55,46.07,3.68,69.3,3.52c26.29-0.18,52.33-2.16,78.23-4.91
		c51.51-5.47,101.89-13.39,151.38-23.41c26.93-5.45,53.91-10.85,81.42-15.21c17.09-2.71,34.52-4.47,52.19-5.37
		c42.11-2.15,83.28,1.34,124.13,7.04c45.68,6.37,89.69,15.83,133.9,24.94c54,11.13,108.89,20.3,165.82,24.64
		c25.29,1.93,50.73,2.62,76.11,1.79c40.1-1.32,78.9-6.61,116.71-14.63c44.41-9.42,87.54-20.75,131.7-30.54
		c22.54-5,44.98-10.16,68.76-12.92c27-3.13,54.22-3.34,81.49-2.24c39.35,1.59,77.42,7.29,115.45,13.04
		c30.51,4.61,60.83,9.66,91.6,13.67c25.03,3.26,50.33,5.55,75.86,6.77c38.12,1.83,75.63-0.45,112.5-6.44
		c4.78-0.22,8.86-1.8,13.44-2.41c4.09-0.03,7.35-1.58,11.17-2.12c2.15,0.03,3.44-1.07,5.3-1.42c3.14-0.06,5.52-1.45,8.55-1.7
		c2.14-0.54,4.11-1.31,6.37-1.67c2.16-0.34,4.03-0.28,4.32,1.42c0.01,42.36,0.01,84.71-0.01,127.06
		C1919.9,694.82,1920.33,695.84,1919.41,696.76z"/>
	<path class="st1" d="M419.66,696.76c0.03-0.2,0.07-0.41,0.1-0.61c5.56,0.01,11.12,0.02,16.68,0.03c0.41,0.19,0.42,0.38,0.01,0.58
		C430.85,696.76,425.25,696.76,419.66,696.76z"/>
	<path class="st1" d="M436.45,696.76c0-0.19,0-0.39-0.01-0.58c5.4,0,10.79-0.01,16.19-0.01c0.41,0.19,0.41,0.39,0.01,0.59
		C447.24,696.76,441.84,696.76,436.45,696.76z"/>
	<path class="st1" d="M452.63,696.76c0-0.2,0-0.39-0.01-0.59c4.79,0.29,9.64-0.67,14.4,0.59
		C462.23,696.76,457.43,696.76,452.63,696.76z"/>
</g>
<rect x="409" y="384" class="st2" width="1160" height="257.6"/>
<rect x="419" y="394" class="st2" width="1140" height="237.6"/>
</svg>
